<mxfile host="app.diagrams.net" modified="2023-12-06T00:32:37.056Z" agent="Mozilla/5.0 (Macintosh; Intel Mac OS X 10_15_7) AppleWebKit/605.1.15 (KHTML, like Gecko) Version/17.1.2 Safari/605.1.15" etag="whNtFFSOg2X3Dezpq-yh" version="22.1.5" type="github">
  <diagram name="Page-1" id="LySv26DR1oaXgMW20Z0X">
    <mxGraphModel dx="984" dy="1764" grid="1" gridSize="10" guides="1" tooltips="1" connect="1" arrows="1" fold="1" page="1" pageScale="1" pageWidth="827" pageHeight="1169" math="0" shadow="0">
      <root>
        <mxCell id="0" />
        <mxCell id="1" parent="0" />
        <mxCell id="yaWvBnxm5K6uvx3PhV37-3" style="edgeStyle=orthogonalEdgeStyle;rounded=0;orthogonalLoop=1;jettySize=auto;html=1;" edge="1" parent="1" source="yaWvBnxm5K6uvx3PhV37-1" target="yaWvBnxm5K6uvx3PhV37-2">
          <mxGeometry relative="1" as="geometry" />
        </mxCell>
        <mxCell id="yaWvBnxm5K6uvx3PhV37-1" value="START" style="strokeWidth=2;html=1;shape=mxgraph.flowchart.start_1;whiteSpace=wrap;" vertex="1" parent="1">
          <mxGeometry x="150" y="90" width="100" height="60" as="geometry" />
        </mxCell>
        <mxCell id="yaWvBnxm5K6uvx3PhV37-5" style="edgeStyle=orthogonalEdgeStyle;rounded=0;orthogonalLoop=1;jettySize=auto;html=1;" edge="1" parent="1" source="yaWvBnxm5K6uvx3PhV37-2" target="yaWvBnxm5K6uvx3PhV37-4">
          <mxGeometry relative="1" as="geometry" />
        </mxCell>
        <mxCell id="yaWvBnxm5K6uvx3PhV37-2" value="Msg:&lt;br&gt;Welcome" style="shape=parallelogram;html=1;strokeWidth=2;perimeter=parallelogramPerimeter;whiteSpace=wrap;rounded=1;arcSize=12;size=0.23;" vertex="1" parent="1">
          <mxGeometry x="40" y="210" width="100" height="60" as="geometry" />
        </mxCell>
        <mxCell id="yaWvBnxm5K6uvx3PhV37-4" value="Enter:&amp;nbsp;&lt;br&gt;User Name" style="shape=parallelogram;html=1;strokeWidth=2;perimeter=parallelogramPerimeter;whiteSpace=wrap;rounded=1;arcSize=12;size=0.23;" vertex="1" parent="1">
          <mxGeometry x="40" y="370" width="100" height="60" as="geometry" />
        </mxCell>
        <mxCell id="yaWvBnxm5K6uvx3PhV37-9" style="edgeStyle=orthogonalEdgeStyle;rounded=0;orthogonalLoop=1;jettySize=auto;html=1;" edge="1" parent="1" source="yaWvBnxm5K6uvx3PhV37-10" target="yaWvBnxm5K6uvx3PhV37-13">
          <mxGeometry relative="1" as="geometry">
            <mxPoint x="560" y="180" as="targetPoint" />
          </mxGeometry>
        </mxCell>
        <mxCell id="yaWvBnxm5K6uvx3PhV37-28" style="edgeStyle=orthogonalEdgeStyle;rounded=0;orthogonalLoop=1;jettySize=auto;html=1;" edge="1" parent="1" source="yaWvBnxm5K6uvx3PhV37-6" target="yaWvBnxm5K6uvx3PhV37-27">
          <mxGeometry relative="1" as="geometry" />
        </mxCell>
        <mxCell id="yaWvBnxm5K6uvx3PhV37-6" value="Ticket:&amp;nbsp;&lt;br&gt;For You" style="strokeWidth=2;html=1;shape=mxgraph.flowchart.decision;whiteSpace=wrap;" vertex="1" parent="1">
          <mxGeometry x="290" y="280" width="100" height="100" as="geometry" />
        </mxCell>
        <mxCell id="yaWvBnxm5K6uvx3PhV37-7" style="edgeStyle=orthogonalEdgeStyle;rounded=0;orthogonalLoop=1;jettySize=auto;html=1;entryX=0;entryY=0.5;entryDx=0;entryDy=0;entryPerimeter=0;" edge="1" parent="1" source="yaWvBnxm5K6uvx3PhV37-4" target="yaWvBnxm5K6uvx3PhV37-6">
          <mxGeometry relative="1" as="geometry" />
        </mxCell>
        <mxCell id="yaWvBnxm5K6uvx3PhV37-12" value="" style="edgeStyle=orthogonalEdgeStyle;rounded=0;orthogonalLoop=1;jettySize=auto;html=1;endArrow=none;endFill=0;" edge="1" parent="1" source="yaWvBnxm5K6uvx3PhV37-6" target="yaWvBnxm5K6uvx3PhV37-10">
          <mxGeometry relative="1" as="geometry">
            <mxPoint x="340" y="280" as="sourcePoint" />
            <mxPoint x="440" y="180" as="targetPoint" />
          </mxGeometry>
        </mxCell>
        <mxCell id="yaWvBnxm5K6uvx3PhV37-10" value="Y" style="text;html=1;strokeColor=none;fillColor=none;align=center;verticalAlign=middle;whiteSpace=wrap;rounded=0;" vertex="1" parent="1">
          <mxGeometry x="340" y="210" width="60" height="30" as="geometry" />
        </mxCell>
        <mxCell id="yaWvBnxm5K6uvx3PhV37-15" style="edgeStyle=orthogonalEdgeStyle;rounded=0;orthogonalLoop=1;jettySize=auto;html=1;" edge="1" parent="1" source="yaWvBnxm5K6uvx3PhV37-16" target="yaWvBnxm5K6uvx3PhV37-14">
          <mxGeometry relative="1" as="geometry" />
        </mxCell>
        <mxCell id="yaWvBnxm5K6uvx3PhV37-13" value="Enter:&lt;br&gt;Student" style="strokeWidth=2;html=1;shape=mxgraph.flowchart.decision;whiteSpace=wrap;" vertex="1" parent="1">
          <mxGeometry x="400" y="100" width="100" height="100" as="geometry" />
        </mxCell>
        <mxCell id="yaWvBnxm5K6uvx3PhV37-19" style="edgeStyle=orthogonalEdgeStyle;rounded=0;orthogonalLoop=1;jettySize=auto;html=1;" edge="1" parent="1" source="yaWvBnxm5K6uvx3PhV37-14" target="yaWvBnxm5K6uvx3PhV37-18">
          <mxGeometry relative="1" as="geometry" />
        </mxCell>
        <mxCell id="yaWvBnxm5K6uvx3PhV37-14" value="Msg:&lt;br&gt;Price â‚¬14" style="shape=parallelogram;html=1;strokeWidth=2;perimeter=parallelogramPerimeter;whiteSpace=wrap;rounded=1;arcSize=12;size=0.23;" vertex="1" parent="1">
          <mxGeometry x="290" y="-100" width="100" height="60" as="geometry" />
        </mxCell>
        <mxCell id="yaWvBnxm5K6uvx3PhV37-17" value="" style="edgeStyle=orthogonalEdgeStyle;rounded=0;orthogonalLoop=1;jettySize=auto;html=1;" edge="1" parent="1" source="yaWvBnxm5K6uvx3PhV37-13" target="yaWvBnxm5K6uvx3PhV37-16">
          <mxGeometry relative="1" as="geometry">
            <mxPoint x="450" y="100" as="sourcePoint" />
            <mxPoint x="464" y="-40" as="targetPoint" />
          </mxGeometry>
        </mxCell>
        <mxCell id="yaWvBnxm5K6uvx3PhV37-16" value="Y" style="text;html=1;strokeColor=none;fillColor=none;align=center;verticalAlign=middle;whiteSpace=wrap;rounded=0;" vertex="1" parent="1">
          <mxGeometry x="420" y="20" width="60" height="30" as="geometry" />
        </mxCell>
        <mxCell id="yaWvBnxm5K6uvx3PhV37-21" style="edgeStyle=orthogonalEdgeStyle;rounded=0;orthogonalLoop=1;jettySize=auto;html=1;" edge="1" parent="1" source="yaWvBnxm5K6uvx3PhV37-18" target="yaWvBnxm5K6uvx3PhV37-20">
          <mxGeometry relative="1" as="geometry" />
        </mxCell>
        <mxCell id="yaWvBnxm5K6uvx3PhV37-18" value="Enter:&lt;br&gt;E-mail" style="shape=parallelogram;html=1;strokeWidth=2;perimeter=parallelogramPerimeter;whiteSpace=wrap;rounded=1;arcSize=12;size=0.23;" vertex="1" parent="1">
          <mxGeometry x="70" y="-220" width="100" height="60" as="geometry" />
        </mxCell>
        <mxCell id="yaWvBnxm5K6uvx3PhV37-23" style="edgeStyle=orthogonalEdgeStyle;rounded=0;orthogonalLoop=1;jettySize=auto;html=1;" edge="1" parent="1" source="yaWvBnxm5K6uvx3PhV37-20" target="yaWvBnxm5K6uvx3PhV37-22">
          <mxGeometry relative="1" as="geometry" />
        </mxCell>
        <mxCell id="yaWvBnxm5K6uvx3PhV37-20" value="Msg:&lt;br&gt;E-mail sent" style="shape=parallelogram;html=1;strokeWidth=2;perimeter=parallelogramPerimeter;whiteSpace=wrap;rounded=1;arcSize=12;size=0.23;" vertex="1" parent="1">
          <mxGeometry x="100" y="-350" width="100" height="60" as="geometry" />
        </mxCell>
        <mxCell id="yaWvBnxm5K6uvx3PhV37-26" style="edgeStyle=orthogonalEdgeStyle;rounded=0;orthogonalLoop=1;jettySize=auto;html=1;" edge="1" parent="1" source="yaWvBnxm5K6uvx3PhV37-22" target="yaWvBnxm5K6uvx3PhV37-25">
          <mxGeometry relative="1" as="geometry" />
        </mxCell>
        <mxCell id="yaWvBnxm5K6uvx3PhV37-22" value="Msg:&lt;br&gt;Tks" style="shape=parallelogram;html=1;strokeWidth=2;perimeter=parallelogramPerimeter;whiteSpace=wrap;rounded=1;arcSize=12;size=0.23;" vertex="1" parent="1">
          <mxGeometry x="270" y="-400" width="100" height="60" as="geometry" />
        </mxCell>
        <mxCell id="yaWvBnxm5K6uvx3PhV37-25" value="END" style="strokeWidth=2;html=1;shape=mxgraph.flowchart.start_1;whiteSpace=wrap;" vertex="1" parent="1">
          <mxGeometry x="640" y="-430" width="100" height="60" as="geometry" />
        </mxCell>
        <mxCell id="yaWvBnxm5K6uvx3PhV37-27" value="Enter:&amp;nbsp;&lt;br&gt;Ticket Name" style="shape=parallelogram;html=1;strokeWidth=2;perimeter=parallelogramPerimeter;whiteSpace=wrap;rounded=1;arcSize=12;size=0.23;" vertex="1" parent="1">
          <mxGeometry x="390" y="510" width="100" height="60" as="geometry" />
        </mxCell>
        <mxCell id="yaWvBnxm5K6uvx3PhV37-29" value="Ticket was sent to e-mail with:&lt;br&gt;&amp;nbsp;User Name;&lt;br&gt;User Age;&lt;br&gt;&amp;nbsp;User e-mail." style="shape=note;whiteSpace=wrap;html=1;backgroundOutline=1;darkOpacity=0.05;" vertex="1" parent="1">
          <mxGeometry x="320" y="-560" width="160" height="140" as="geometry" />
        </mxCell>
      </root>
    </mxGraphModel>
  </diagram>
</mxfile>
